<?xml version="1.0" encoding="UTF-8"?>
<svg width="700pt" height="700pt" version="1.1" viewBox="0 0 700 700" xmlns="http://www.w3.org/2000/svg" xmlns:xlink="http://www.w3.org/1999/xlink">
 <defs>
  <symbol id="w" overflow="visible">
   <path d="m0.03125 0h-0.015625-0.015625v-0.015625-0.015625h0.015625 0.015625-0.015625v0.015625 0.015625h0.015625v-0.015625z"/>
  </symbol>
  <symbol id="e" overflow="visible">
   <path d="m0.015625-0.015625v0.015625h-0.015625v-0.03125h0.015625v0.015625-0.015625z"/>
  </symbol>
  <symbol id="b" overflow="visible">
   <path d="m0.03125-0.015625h-0.015625v0.015625c0.0078125 0 0.015625-0.0039062 0.015625-0.015625v0.015625h-0.015625-0.015625v-0.015625l0.015625-0.015625v0.015625h0.015625z"/>
  </symbol>
  <symbol id="a" overflow="visible">
   <path d="m0.015625-0.015625v0.015625-0.015625zm0.015625 0v0.015625h-0.015625-0.015625v-0.015625h0.015625-0.015625v-0.015625h0.015625v0.015625h0.015625z"/>
  </symbol>
  <symbol id="d" overflow="visible">
   <path d="m0.015625-0.03125v0.015625 0.015625h-0.015625v-0.015625-0.015625z"/>
  </symbol>
  <symbol id="l" overflow="visible">
   <path d="m0.015625-0.015625v-0.015625h0.015625v0.03125h-0.015625-0.015625v-0.015625l0.015625-0.015625v0.015625zm0 0.015625v-0.015625 0.015625z"/>
  </symbol>
  <symbol id="k" overflow="visible">
   <path d="m0.015625 0v-0.015625 0.015625zm0-0.015625v-0.015625c0.0078125 0 0.015625 0.0078125 0.015625 0.015625v0.015625h-0.015625-0.015625v-0.03125h0.015625z"/>
  </symbol>
  <symbol id="j" overflow="visible">
   <path d="m0-0.03125h0.015625v0.015625-0.015625h0.015625l-0.015625 0.03125v0.015625h-0.015625v-0.015625h0.015625z"/>
  </symbol>
  <symbol id="i" overflow="visible">
   <path d="m0.015625-0.03125v0.015625 0.015625h0.015625v-0.015625c0-0.0078125-0.0078125-0.015625-0.015625-0.015625zm0 0h0.015625v0.015625 0.015625h-0.015625-0.015625v-0.015625-0.015625h0.015625z"/>
  </symbol>
  <symbol id="v" overflow="visible">
   <path d="m0-0.03125h0.015625v0.03125h-0.015625z"/>
  </symbol>
  <symbol id="f" overflow="visible">
   <path d="m0.03125-0.015625v0.015625h-0.015625v-0.015625 0.015625h-0.015625v-0.03125h0.015625v0.015625-0.015625c0.0078125 0 0.015625 0.0078125 0.015625 0.015625z"/>
  </symbol>
  <symbol id="h" overflow="visible">
   <path d="m0-0.03125h0.015625 0.015625v0.015625h-0.015625v0.015625h-0.015625zm0.015625 0v0.015625-0.015625z"/>
  </symbol>
  <symbol id="g" overflow="visible">
   <path d="m0.03125-0.03125v0.015625h-0.015625c0.0078125 0 0.015625 0.0078125 0.015625 0.015625h-0.015625-0.015625 0.015625v-0.015625h-0.015625l0.015625-0.015625h0.015625z"/>
  </symbol>
  <symbol id="c" overflow="visible">
   <path d="m0.015625-0.015625v0.015625-0.015625zm0-0.015625v0.015625h0.015625c0 0.011719-0.0078125 0.015625-0.015625 0.015625h-0.015625v-0.015625l0.015625-0.015625z"/>
  </symbol>
  <symbol id="u" overflow="visible">
   <path d="m0-0.03125h0.015625v0.015625-0.015625h0.015625l-0.015625 0.03125z"/>
  </symbol>
  <symbol id="t" overflow="visible">
   <path d="m0-0.03125h0.015625v0.015625-0.015625h0.015625l-0.015625 0.015625 0.015625 0.015625h-0.015625v-0.015625 0.015625h-0.015625z"/>
  </symbol>
  <symbol id="s" overflow="visible">
   <path d="m0.015625-0.03125v0.03125h-0.015625v-0.03125h0.015625z"/>
  </symbol>
  <symbol id="r" overflow="visible">
   <path d="m0.03125-0.015625v-0.015625c0.0078125 0 0.015625 0.0078125 0.015625 0.015625v0.015625h-0.015625v-0.015625 0.015625h-0.015625v-0.015625 0.015625h-0.015625v-0.03125h0.015625v0.015625-0.015625 0.015625h0.015625z"/>
  </symbol>
  <symbol id="q" overflow="visible">
   <path d="m0.03125-0.015625v0.015625h-0.015625v-0.015625 0.015625h-0.015625v-0.03125h0.015625v0.015625-0.015625c0.0078125 0 0.015625 0.0078125 0.015625 0.015625z"/>
  </symbol>
  <symbol id="p" overflow="visible">
   <path d="m0-0.03125h0.015625l0.015625 0.015625v-0.015625 0.03125l-0.015625-0.015625v0.015625h-0.015625z"/>
  </symbol>
  <symbol id="o" overflow="visible">
   <path d="m0-0.015625v-0.015625h0.015625v0.015625 0.015625-0.015625-0.015625h0.015625v0.03125h-0.015625-0.015625v-0.015625z"/>
  </symbol>
  <symbol id="n" overflow="visible">
   <path d="m0-0.03125h0.015625v0.03125h-0.015625v0.015625zm0 0h0.015625z"/>
  </symbol>
  <symbol id="m" overflow="visible">
   <path d="m0.03125-0.03125v0.015625h-0.015625v0.015625h0.015625-0.015625-0.015625v-0.015625l0.015625-0.015625h0.015625z"/>
  </symbol>
 </defs>
 <g>
  <path d="m350 10.059c3.5781 0 7.1367 0.070312 10.68 0.20703 0.94531-0.027344 1.9258 0.015625 2.9375 0.12891 69.121 3.4336 131.4 32.867 177.26 78.727 48.848 48.848 79.062 116.34 79.062 190.88 0 74.543-30.215 142.03-79.062 190.88s-116.34 79.062-190.88 79.062c-10.883 0-21.613-0.64844-32.16-1.9023-4.3672-0.28125-8.4414-0.85156-12.094-1.7109-56.816-9.3711-107.65-36.48-146.62-75.453-40.438-40.438-68.105-93.648-76.438-153.06-0.33594-1.5742-0.53906-3.1328-0.60938-4.6758-1.3281-10.859-2.0195-21.918-2.0195-33.141 0-66.207 23.836-126.84 63.395-173.8 0.61719-1.9688 1.3984-3.7617 2.3281-5.3906 2.7812-4.8633 6.8125-8.1914 11.77-10.09 0.52344-0.53125 1.043-1.0625 1.5703-1.5898 48.848-48.848 116.34-79.062 190.88-79.062zm-241.2 373.61c13.121 10.398 39.637 0.40625 59.363-7.0312 5.7383-2.1641 10.934-4.1211 15.316-5.3906l0.015625-0.003906-0.003906-0.011719 0.042968-0.011719c15.391-4.4297 27.977 2.0859 37.574 12.754 3.5039 3.8945 6.5977 8.3594 9.2656 13.031 0.1875-0.55859 0.39453-1.1133 0.625-1.6719 1.9766-4.7461 5-8.7461 8.6875-13.617 0.40625-0.53516 0.81641-1.082 1.2383-1.6406-12.746-15.199-22.777-23.988-32.977-27.453-10.434-3.543-21.523-1.5391-36.504 4.8008-8.9609 3.7891-18.156 7.3672-27.492 9.1875-9.6133 1.875-19.332 1.8867-29.02-1.5977-7.625-2.7422-13.184-6.8555-16.508-11.945-0.42578-0.65234-0.8125-1.3164-1.1641-1.9961 3.1406 11.188 7 22.07 11.531 32.598zm128.89 29.203c0.8125 2.2266 1.5234 4.4062 2.1367 6.5078 1.207 3.1602 2.6328 6.3711 4.0625 9.5898 0.58594 1.3203 1.1719 2.6406 1.7461 3.9609 0.88672-13.465 3.2812-25.398 10.02-34.844 8.6328-12.105 23.992-19.684 51.66-20.41 2.0547-0.046875 3.7578 1.5781 3.8047 3.6328 0.046875 2.0547-1.5781 3.7578-3.6328 3.8047-24.938 0.65625-38.48 7.0703-45.77 17.289-7.3867 10.355-8.7578 25.055-9.0898 41.773-0.12109 6.2109-0.35547 11.145-0.85547 15.125-0.019532 0.16406-0.039063 0.33203-0.058594 0.49609-0.011719 0.082031-0.023438 0.16406-0.039062 0.24609-0.46875 3.3867-1.1523 6.0625-2.1602 8.2461-2.582 5.6055-6.6953 7.793-13.695 9.3516-23.719 5.2812-30.266 3.8984-32.52-6.2266-0.67969-3.0586-0.72656-6.8008-0.78516-11.535-0.035156-2.8594-0.078125-6.1055-0.28125-9.9141-0.29688-5.4961-1.5195-9.5469-3.4023-12.297-1.0898-1.5898-2.4258-2.7266-3.9336-3.4297-1.5469-0.72266-3.3164-1.0156-5.2383-0.91016-3.8672 0.21094-8.3242 1.9844-12.918 5.1367-11.652 7.9922-21.773 9.9531-29.426 8.3086 5.3906 6.5469 11.094 12.828 17.086 18.816 9.25 9.25 19.188 17.812 29.734 25.605-2.4141-3.3047-4.4219-6.9727-6.0117-10.832-4.4922-10.914-5.6406-23.449-2.9453-33.359 0.53906-1.9883 2.5898-3.1641 4.5781-2.625 1.9883 0.53906 3.1641 2.5898 2.625 4.5781-2.2812 8.3984-1.2617 19.137 2.625 28.578 3.4609 8.4062 9.1641 15.688 16.77 19.172 8.4805 3.8828 19.387 4.6484 29.609 1.7617 9.0234-2.5508 17.465-7.9727 23.137-16.641 2.4727-3.7812 3.3125-10.879 4.8672-24.039 0.45312-3.8438 0.97266-8.2305 1.7812-14.434 1.7812-13.621 5.7812-21.973 10.965-26.691 4.6562-4.2383 10.105-5.5625 15.738-5.0781 5.2227 0.44922 10.562 2.5039 15.492 5.1836 1.8398 1 3.6367 2.1172 5.3555 3.2852-4.8984-15.434-2.3594-34.336 10.988-62.719 0.87109-1.8594 3.082-2.6641 4.9453-1.793 1.8594 0.87109 2.6641 3.082 1.793 4.9453-25.848 54.973-7.2461 71.285 26.637 101 1.9062 1.6719 3.8672 3.3906 6.2344 5.4844 8.043 7.1094 12.73 13.754 14.793 19.855 2.4961 7.3828 1.2812 13.918-2.4883 19.531-5.3984 8.043-16.762 15.574-31.105 21.406-13.043 5.3047-28.672 9.2891-44.527 11.02 4.2695 0.71875 8.5703 1.3398 12.906 1.8516 14.039 0.83984 31.363-1.5195 46.816-7.043 16.238-5.8008 30.242-15.035 35.711-27.586 6.7461-15.473 6.4844-29.805 1.6328-42.508-5.7734-15.121-18.039-28.082-32.801-38.031-1.707-1.1523-2.1562-3.4688-1.0078-5.1758 1.1523-1.707 3.4688-2.1562 5.1758-1.0078 15.938 10.742 29.234 24.883 35.602 41.562 5.5117 14.438 5.832 30.676-1.7773 48.137-6.3945 14.676-22.039 25.211-40.027 31.641-1.4531 0.51953-2.9258 1.0117-4.4102 1.4805 25.766-1.3359 50.551-6.3906 73.824-14.637-0.85156-0.19531-1.6719-0.45312-2.4531-0.78125-3.4297-1.4297-6.0625-4.0312-7.5117-7.9844-1.5664-4.2695-1.6484-10.148 0.36719-17.859 0.51562-1.9883 2.5469-3.1836 4.5352-2.668s3.1836 2.5469 2.668 4.5352c-1.6016 6.125-1.6445 10.508-0.57422 13.426 0.67578 1.8398 1.8555 3.0352 3.3672 3.668 1.793 0.74609 4.1289 0.84375 6.7773 0.38672 6.2227-1.0742 13.66-5.0977 20.051-10.992 7.8438-7.2383 14.199-16.785 16.211-24.855 0.78516-3.1445 0.87891-5.957 0.085937-8.1406-0.6875-1.8906-2.1719-3.3945-4.6367-4.3008-4.4688-1.6484-11.719-1.4883-22.52 1.3789-3.3516 0.89062-6.1289 1.7109-8.4453 2.3984-6.7344 1.9961-10.215 3.0234-13.16 1.0625-3.2539-2.168-3.2461-6.0156-3.2305-13.969 0.003906-1.875 0.007813-4.0312-0.023437-6.5117-0.011719-0.81641-0.039063-1.6328-0.089844-2.4492-0.015625-0.13281-0.023438-0.26953-0.023438-0.40625-0.85547-13.141-6.3203-25.914-14.113-36.184-2.3672-3.1172-4.9414-6-7.6602-8.582-0.19141-0.14844-0.37109-0.31641-0.53125-0.49609-7.2305-6.7188-15.43-11.328-23.41-12.707-2.0312-0.34766-3.3945-2.2734-3.0469-4.3008 0.34766-2.0312 2.2734-3.3945 4.3008-3.0469 9.125 1.5742 18.391 6.6328 26.516 13.98 9.6328 0.79297 16.98 1.1953 23.559-1.0898 2.9688-1.0312 5.8906-2.6367 8.9258-5.0273l0.003906-0.003906c0.47656-0.40625 0.95703-0.80078 1.4414-1.1875 3.5742-3.0742 7.3398-7.2578 11.559-12.891 7.1172-9.5039 11.559-15.266 19.082-17.949 7.2539-2.5859 16.613-1.8125 33.34 1.8164 9.9453 2.1602 20.453 4.2969 30.117 5.7148 9.5312 1.4023 18.223 2.1172 24.684 1.4805 5.9023-0.58203 11.348-1.9805 16.168-4.1133 7.3086-3.2344 13.145-8.168 16.91-14.508 3.7812-6.3672 5.5234-14.211 4.6289-23.246-0.59766-6.0391-2.3711-12.625-5.4961-19.688-2.9648-6.6992-6.5469-11.941-11.07-16.652-4.082-4.2539-8.9766-8.1367-14.891-12.293-0.76953 1.0273-1.5352 2.0547-2.3008 3.0781-3.8281 5.1211-7.5859 10.141-11.098 14.949l2.0547 1.8867c0.85938 0.79688 1.7617 1.6406 2.7148 2.5391 6.6602 6.2734 10.168 13.223 10.91 19.668 0.51172 4.4414-0.28516 8.6562-2.2695 12.297-1.9844 3.6367-5.1211 6.6406-9.293 8.6562-6.0703 2.9375-14.367 3.7695-24.422 1.3164-7.1641-1.75-9.082-6.7305-7.2852-14.078 2.8672-11.75 17.211-30.926 32.742-51.688 5.8984-7.8867 11.977-16.008 17.844-24.309 16.414-23.223 22.066-39.922 18.117-51.965-3.8125-11.621-16.965-19.496-38.348-25.258-2.5352 5.4062-5.2656 10.207-7.6367 14.148-1.6055 2.6719-3.1055 5.2188-4.4961 7.6523 9.3516 12.34 11.672 21.961 9.9102 30.414-1.7695 8.4961-7.5625 15.262-14.426 22.324-0.35547 0.36719-0.70703 0.72656-1.0547 1.0781-0.18359 0.25391-0.39844 0.48828-0.65234 0.69531-0.050781 0.042968-0.10156 0.082031-0.15234 0.11719-4.7227 4.7773-8.3672 8.1367-11.211 10.762-7.625 7.0391-8.7305 8.0586-9.0859 18.465-0.41797 12.289-4.2812 20.227-10.625 26.141-6.1055 5.6914-14.277 9.2109-23.828 12.957-23.59 9.25-28.301 16.973-37.984 32.844l-0.19531 0.32031c-4.9766 8.1523-8.418 12.641-12.223 15.059-4.207 2.6758-8.2109 2.707-14.215 1.9375-1.6094-0.20703-3.2227-0.47266-4.832-0.79688-13.375-2.6836-26.34-9.3516-35.422-19.77-4.5117-5.1719-8.0625-11.246-10.242-18.188-1.1562 7.6641-2.0078 15.441-2.875 23.398-0.64453 5.9023-1.3008 11.902-2.1406 18.34-0.26562 2.0391-2.1328 3.4727-4.1719 3.207-2.0391-0.26562-3.4727-2.1328-3.207-4.1719 0.78125-5.9648 1.4531-12.117 2.1133-18.164 2.6172-23.953 5.0625-46.352 16.07-69.355 1.3984-2.918 2.6914-5.4961 3.8477-7.8008 6.0664-12.094 8.0469-16.039 3.2109-29.699-5.3398-15.082-7.207-24.73-6.0352-32.586 1.2227-8.1914 5.5156-13.973 12.457-21.297 15.445-16.297 26.242-22.375 36.812-21.918 10.547 0.45703 19.805 7.3125 32.824 16.961 11.023 8.1719 19.484 11.859 27.484 12.848 7.9922 0.98828 15.852-0.71484 25.484-3.332 0.3125-0.085938 0.62891-0.12891 0.9375-0.12891 1.6094-2.9492 3.2656-5.9727 4.918-8.9922 3.5117-6.4102 7.0078-12.797 10.496-19.316-7.6445-0.38672-16.52 1.2539-25.047 2.8281-14.781 2.7305-28.605 5.2891-36.551-2.3359l-2.3516-2.2578 1.9297-2.6289c20.66-28.133 38.727-39.789 52.074-41.754 5.6094-0.82422 10.492 0.007812 14.496 2.0547 4.0859 2.0898 7.1797 5.3906 9.1602 9.4492 3.6953 7.582 3.4727 17.867-1.5703 27.59-5.1797 9.9805-10.625 19.926-16.102 29.922-3.2148 5.8711-6.4414 11.762-10.129 18.633-5.707 10.637-7.2344 19.773-5.7617 28.074 1.3672 7.7148 5.3438 14.879 10.992 21.957 1.1992-1.1719 2.6016-2.4688 4.2461-3.9844 2.4062-2.2188 5.3867-4.9727 9.0547-8.6094-5.8125-8.1094-7.4531-16.168-5.5273-25.82 2-10.02 7.9844-21.605 17.207-36.953 5.1445-8.5625 12.117-21.398 14.316-35.191 2.1289-13.352-0.25781-27.785-13.426-40.289l-0.070312-0.066406 0.007812-0.007813c-9.8242-9.293-21.289-12.285-33.105-9.9922-12.215 2.3672-24.902 10.305-36.719 22.746l-0.15234 0.16016-0.007813-0.007813c-7.2695 7.6797-14.961 15.664-23.359 21.047-8.9531 5.7383-18.613 8.5508-29.23 5.1836-6.4766-2.0547-11.824-3.6484-17.016-3.5195-5.1055 0.125-10.461 1.9062-17.305 6.5586-2.75 1.8672-5.418 3.8711-8.1172 6.0977-2.668 2.1992-5.3789 4.6367-8.2383 7.3984-5.0859 4.9102-8.1211 8.4688-10.102 12.43-1.9922 3.9883-3.0742 8.6836-4.2305 15.824-0.41406 2.5469-0.84375 4.8945-1.293 7.0273-0.45312 2.168-0.94531 4.2227-1.4688 6.1367-0.17969 0.66406-0.33203 1.1719-0.46094 1.5391-2.0938 6.0977-5.8555 9.1133-9.832 10.422-3.8047 1.2539-7.7148 0.8125-10.457 0.0625-0.55859-0.15234-0.94531-0.26953-1.1914-0.35156-7.9492-2.7305-11.195-12.867-13.809-21.035-0.62109-1.9414-1.1992-3.7539-1.7656-5.2031-5.125-13.156-13.164-24.859-20.832-36.02-2.6641-3.875-5.2852-7.6914-7.5156-11.133-7.1055-10.969-13.355-22.18-17.062-32.648-3.8867-10.98-5.0156-21.254-1.5625-29.832 7.7188-19.176 23.23-29.484 38.605-31.176 6.1953-0.67969 12.387 0.046875 18.066 2.1641 5.7227 2.1367 10.898 5.668 15 10.582 6.2539 7.4883 10.02 18.16 9.3906 31.906 7.0977-8.1367 16.988-14.719 30.793-18.668-1.4883-0.92188-2.8945-1.9805-4.2227-3.1602-6.6992-5.9414-11.254-14.914-13.418-24.727-0.93359-4.2422-1.1914-8.3086-0.80859-12.121 0.64062-6.3867 3.0859-11.965 7.1836-16.355 2.3828-2.5508 5.3008-4.6836 8.7266-6.3242-6.6211-0.77344-13.316-1.2969-20.078-1.5664-0.39844 0.019531-0.78516 0.058594-1.1602 0.11719-3.3906 0.51953-5.9648 2.6797-7.8242 5.6367-2.0898 3.3203-3.3203 7.625-3.8359 11.926-0.41406 3.4414-0.36328 6.8359 0.078125 9.7031 0.30469 2.0391-1.0977 3.9375-3.1367 4.2422s-3.9375-1.0977-4.2422-3.1367c-0.29687-1.9375-0.44922-4.0664-0.44141-6.2773-18.203-2.0234-33.312-2.4648-45.852-1.3945-12.609 1.0781-22.535 3.6797-30.332 7.7305-10.277 5.3359-18.375 13.859-23.004 23.914-4.4141 9.5938-5.6602 20.59-2.6055 31.547 5.7422 20.598 15.855 35.078 27.32 51.488 2.8438 4.0742 5.7695 8.2617 8.6016 12.484 1.1445 1.707 0.6875 4.0195-1.0195 5.1641-1.707 1.1445-4.0195 0.6875-5.1641-1.0195-2.3516-3.5078-4.5977-6.7539-6.7852-9.8906l-0.25391-0.28906c-10.379-11.676-20.203-16.855-29.02-17.625-8.5898-0.75-16.395 2.7188-22.863 8.4062l-0.007813-0.007813-0.17188 0.15234 0.007813 0.007812c-30.934 27.492-37.758 26.508-65.668 22.492l-0.49609-0.070313c-11.852-1.707-21.008 1.5273-27.398 7.7422-4.9492 4.8086-8.3359 11.441-10.113 18.996-1.8242 7.7461-1.9531 16.414-0.34375 25.09 3.3398 17.988 14.133 35.934 32.781 45.676 6.6758 3.4844 15.484 5.457 25.07 6.5898 9.8828 1.168 20.43 1.4297 30.352 1.5195 14.758 0.13281 24.41 4.7891 31.852 12.547 7.2031 7.5078 12.027 17.645 17.473 29.344 4.9297 10.594 10.465 17.578 16.57 21.742 0.39062 0.26562 0.78516 0.52344 1.1836 0.76562 0.57031-2.5195 0.94922-5.0273 1.1172-7.5234 0.55078-8.2227-1.1992-16.395-5.9453-24.625-7.3203-12.691-14.504-23.91-23.68-32.18-8.9492-8.0625-19.949-13.391-35.148-14.633-35.418-2.8945-56.379-15.371-65.172-28.586-3.1484-4.7344-4.793-9.6133-5.0391-14.277-0.25391-4.8242 0.98828-9.3711 3.6133-13.254 5.0742-7.5039 15.266-12.418 29.68-11.762 9.2148 0.41797 18.094 0.5625 25.617-1.0977 7.0625-1.5586 13.043-4.75 17.137-10.961 5.5391-8.4062 11.336-14.082 18.082-15.148 6.9375-1.0938 14.16 2.6367 22.098 13.16l0.28516 0.375c10.316 13.68 14.883 19.738 36.805 15.305 7.5586-1.5273 13.059-1.9844 17.914 1.1055 4.6211 2.9414 7.8711 8.8438 10.793 19.891 2.8281 10.711 4.5195 19.859 4.2852 29.371-0.097656 4.043-0.54297 8.1211-1.3945 12.371 4.8359-3.5898 10.203-5.1914 15.555-4.1953 0.20703 0.039063 0.33594 0.0625 0.39062 0.074219 7.3906 1.5547 13.02 7.7383 16.148 16.484 2.8984 8.1055 3.6797 18.566 1.6484 29.465-0.10938 0.59766-0.21094 1.1094-0.30469 1.543-2.1875 10.41-6.6289 19.336-12.113 25.402-5.9258 6.5547-13.133 9.9023-20.32 8.5625-0.20703-0.039062-0.33594-0.0625-0.39062-0.074218-1.8711-0.39453-3.6328-1.0859-5.2656-2.0391-1.5742 6.0195-3.9648 10.172-7.5586 13.121-4.6797 3.8359-10.98 5.25-19.879 5.8047-4.9648 0.30859-9.7148-0.125-14.242-1.4688-1.3828 3.7656-3.1016 7.5391-5.1016 11.336-5.1133 9.6914-10.047 16.211-14.141 21.621-3.3789 4.4648-6.1484 8.125-7.7578 11.984-1.8594 4.4688-1.5664 9.4414-0.19531 14.676zm-7.2773 1.7617c-3.3203-8.8867-8.3086-18.406-14.844-25.672-7.8164-8.6914-17.914-14.043-29.992-10.566l-0.042969 0.011719-0.003906-0.007812c-3.9922 1.1562-9.1016 3.082-14.746 5.2109-17.742 6.6875-40.527 15.277-57.16 10.625 5.3242 11 11.395 21.57 18.145 31.645 0.46484-5.8359 3.3164-11.973 8.9844-17.125 1.5234-1.3867 3.8789-1.2734 5.2656 0.24609 1.3867 1.5234 1.2734 3.8789-0.24609 5.2656-5.293 4.8086-7.2344 10.562-6.4688 15.414 0.33203 2.1133 1.1992 4.0664 2.5352 5.6836 1.332 1.6094 3.1484 2.8867 5.3945 3.6602 5.8711 2.0195 14.555 0.66797 25.309-6.7109 5.707-3.9141 11.48-6.1328 16.738-6.418 3.1484-0.17188 6.1094 0.33984 8.7695 1.582 2.6953 1.2578 5.0469 3.2422 6.9375 5.9961 2.625 3.8281 4.3086 9.1602 4.6875 16.117 0.20312 3.7188 0.24609 7.168 0.28125 10.203 0.054687 4.3008 0.097656 7.7031 0.61328 10.02 0.97656 4.3867 5.7305 4.5586 23.656 0.56641 4.5742-1.0195 7.1758-2.2656 8.5312-5.2109 0.70312-1.5273 1.2031-3.5156 1.5664-6.0938 0.003906-0.070313 0.011719-0.14062 0.019531-0.21094 1.0352-8.1602-3.1289-17.551-7.2734-26.895-2.5781-5.8086-5.1484-11.605-6.6484-17.34zm94.031-180.21c0.21094 1.2695-0.64453 2.4688-1.9141 2.6797-1.2695 0.21094-2.4688-0.64453-2.6797-1.9141-0.375-2.2148-0.79688-4.3945-1.2695-6.5312-0.48047-2.168-1.0273-4.3828-1.6562-6.6445-0.34375-1.2383 0.38281-2.5195 1.6211-2.8633s2.5195 0.38281 2.8633 1.6211c0.63281 2.2891 1.1992 4.582 1.7109 6.8789 0.51562 2.3281 0.95312 4.582 1.3242 6.7695zm-9.4414 111.25c0.44141-1.207 1.7812-1.8281 2.9883-1.3867 1.207 0.44141 1.8281 1.7812 1.3867 2.9883l-6.668 18.027c-0.44141 1.207-1.7812 1.8281-2.9883 1.3867-1.207-0.44141-1.8281-1.7812-1.3867-2.9883zm58.148-147.4c-0.52734 1.1719-1.9062 1.6953-3.082 1.168-1.1719-0.52734-1.6953-1.9062-1.168-3.082 2.2852-5.0469 4.9023-9.0703 8.2422-12.742 3.2969-3.625 7.2656-6.8789 12.297-10.43 1.0508-0.73828 2.5039-0.48828 3.2461 0.56641 0.73828 1.0508 0.48828 2.5039-0.56641 3.2461-4.7617 3.3594-8.4883 6.4062-11.531 9.7578-3 3.3047-5.3633 6.9375-7.4375 11.52zm-28.211 165.81c0.33203-1.2422 1.6094-1.9805 2.8516-1.6484s1.9805 1.6094 1.6484 2.8516c-0.875 3.2305-1.8984 6.2891-2.8828 9.2266-1.9414 5.7891-3.7227 11.098-3.8672 16.781-0.03125 1.2852-1.0938 2.3008-2.3789 2.2695s-2.3008-1.0938-2.2695-2.3789c0.16406-6.3984 2.0469-12.016 4.1016-18.148 0.94141-2.8086 1.9219-5.7344 2.793-8.9531zm103.48 37.535c-0.066407 0.054687-0.13281 0.10938-0.19922 0.16016-3.7227 2.9492-7.3594 4.9336-11.121 6.2422-5.8008 2.0156-11.621 2.3516-18.367 2.0547 0.72266 0.87109 1.4258 1.7578 2.1172 2.668 5.4102 7.125 9.8047 15.371 12.562 24.148 6.4805-13.918 18.832-21.992 31.727-25.332 8.0977-2.0977 16.422-2.3086 23.625-0.91406 7.5156 1.4531 13.938 4.6836 17.859 9.3984 4.8477 5.8281 5.9375 13.578 0.875 22.699-1 1.7969-3.2656 2.4414-5.0586 1.4453-1.7969-1-2.4414-3.2656-1.4453-5.0586 3.3242-5.9922 2.8047-10.852-0.089844-14.328-2.7812-3.3438-7.6602-5.6953-13.543-6.832-6.1953-1.1992-13.367-1.0117-20.359 0.80078-14.539 3.7656-28.254 14.625-30.508 34.773 0.050782 0.88281 0.082032 1.7656 0.09375 2.6484 0.03125 2.4922 0.027344 4.6875 0.023438 6.5977-0.011719 5.25-0.11328 7.7227-0.066406 7.7578 0.054687 0.035157 2.3906-0.65625 6.918-1.9961 2.375-0.70312 5.2305-1.5508 8.6484-2.457 12.41-3.293 21.164-3.3164 26.984-1.1758 4.7188 1.7383 7.6328 4.8164 9.0703 8.7656 1.3281 3.6562 1.2773 7.9336 0.14844 12.457-2.1211 8.5078-8.1836 18.25-15.828 26.059 23.34-12.34 44.598-28.09 63.105-46.594 28.113-28.113 49.875-62.574 62.957-101.05-4.1836 4.6523-9.4609 8.3906-15.578 11.098-5.5078 2.4375-11.719 4.0352-18.445 4.6992-7.1719 0.70703-16.453-0.03125-26.488-1.5078-9.9023-1.457-20.555-3.6211-30.613-5.8047-15.281-3.3164-23.562-4.1211-29.285-2.082-5.2891 1.8828-9.0977 6.6992-15.031 14.609 8.1172-2.2773 16.672-2.6211 24.961-1.3828 9.7578 1.457 19.18 5.1211 27.086 10.402 7.9961 5.3438 14.469 12.363 18.234 20.465 4.4688 9.6211 5.1289 20.676 0.058593 32.195-1.7656 4.0117-6.875 10.207-12.762 15.043-3.2812 2.6992-6.8594 5.0352-10.32 6.4336-3.9766 1.6055-7.8867 2.0195-11.285 0.52344-1.4766-0.64844-2.8086-1.6484-3.9609-3.0469-1.3047-1.5859-1.0781-3.9297 0.51172-5.2344 1.5859-1.3047 3.9297-1.0781 5.2344 0.51172 0.36328 0.44141 0.77344 0.75 1.2188 0.94531 1.3594 0.59766 3.3125 0.27734 5.5117-0.61328 2.7148-1.0977 5.6289-3.0156 8.3672-5.2656 5.0273-4.1328 9.2891-9.1836 10.66-12.301 4.1211-9.3633 3.6016-18.312 0-26.07-3.168-6.8242-8.7148-12.797-15.609-17.402-6.9883-4.668-15.34-7.9102-24.02-9.207-12.98-1.9375-26.633 0.50391-37.406 9.0898-0.38672 0.32812-0.76953 0.64453-1.1523 0.95312l-0.007812 0.007813zm-122.03 33.559c-2.7188-2.4805-9.0742-7.7695-16.586-11.855-4.0977-2.2305-8.4492-3.9297-12.547-4.2812-3.6875-0.31641-7.1992 0.50391-10.109 3.1562-3.957 3.6016-7.0781 10.477-8.6055 22.141-0.61328 4.6875-1.2188 9.832-1.7539 14.344-1.6875 14.289-2.5977 21.996-6.0312 27.246-6.7383 10.297-16.719 16.723-27.367 19.734-8.8164 2.4922-18.129 2.6211-26.441 0.64844 21.242 12.512 44.398 22.125 68.926 28.281-0.92578-0.63672-1.8164-1.3281-2.6562-2.0664-3.1758-2.7812-5.7148-6.2344-7.2773-9.9336-1.625-3.8438-2.2109-7.9688-1.4023-11.93 0.91797-4.4961 3.5664-8.6719 8.4336-11.863 3.4492-2.2656 7.7188-3.332 12.586-1.8594 3.6562 1.1094 7.5938 3.6992 11.648 8.4219 1.3359 1.5625 1.1523 3.9141-0.41016 5.25-1.5625 1.3359-3.9141 1.1523-5.25-0.41016-3.0234-3.5234-5.75-5.3945-8.1484-6.1172-2.4414-0.73828-4.5938-0.19141-6.3438 0.95703-3.0547 2.0039-4.6914 4.4961-5.2227 7.1094-0.49609 2.4258-0.097656 5.043 0.96484 7.5547 1.125 2.6562 2.9805 5.168 5.3242 7.2188 3.6758 3.2188 8.5078 5.2422 13.504 4.8086 16.391-1.4141 32.695-5.4062 46.098-10.859 13.035-5.3008 23.184-11.875 27.719-18.637 2.4883-3.7109 3.2852-8.0547 1.6133-13-1.668-4.9336-5.6719-10.496-12.664-16.676-1.875-1.6602-4.0664-3.582-6.207-5.457-13.273-11.641-24.375-21.379-31.789-31.926zm1.9453-136.11c0.23047-1.2617 1.4453-2.1016 2.707-1.8672 1.2617 0.23047 2.1016 1.4453 1.8672 2.707-0.058594 0.31641-0.10938 0.58203-0.15625 0.80078-1.1328 5.3906-3.4375 10.016-6.2852 13.168-3.125 3.457-6.9414 5.2188-10.766 4.5039h-0.007813l-0.19922-0.039062c-1.2578-0.26172-2.0664-1.4961-1.8047-2.7539 0.26172-1.2578 1.4961-2.0664 2.7539-1.8047l0.10938 0.019531c2.1289 0.39062 4.4336-0.79297 6.4727-3.0469 2.3164-2.5625 4.2109-6.4219 5.1758-10.996 0.058594-0.27344 0.10547-0.50781 0.13672-0.69141zm-28.145 30.902c-1.8281-2.4453-3.3438-5.3516-4.5117-8.6172-2.8984-8.1055-3.6797-18.566-1.6484-29.465 0.10938-0.59766 0.21094-1.1094 0.30469-1.543 0.91406-4.3398 2.2148-8.4219 3.8242-12.145-0.050781-0.58203 0.03125-1.1836 0.26953-1.7578 4.5273-10.91 6.5352-19.805 6.7461-28.414 0.21094-8.6562-1.3828-17.199-4.0508-27.301-2.3945-9.0703-4.6758-13.664-7.582-15.516-2.6758-1.7031-6.7031-1.25-12.461-0.085937-26.516 5.3633-31.949-1.8398-44.211-18.105l-0.28516-0.375c-6.043-8.0117-10.883-10.953-15.012-10.305-4.3164 0.67969-8.582 5.1602-13.008 11.879-2.2148 3.3594-4.8164 6.0312-7.7344 8.1484 4.418 5.4492 7.7422 10.586 9.8125 16.098 2.3086 6.1562 2.9883 12.613 1.7773 20.227-0.79297 4.9961-2.7422 9.7969-5.5977 14.426-2.0586 3.3359-4.5859 6.5781-7.4844 9.7344 15.902 1.7188 27.645 7.6016 37.312 16.316 9.8906 8.9141 17.465 20.715 25.137 34.02 5.543 9.6094 7.582 19.18 6.9375 28.824-0.22656 3.3711-0.78125 6.7383-1.6289 10.109 3.6602 1.0742 7.5273 1.418 11.59 1.1641 7.3555-0.46094 12.371-1.4727 15.594-4.1133 2.9414-2.4102 4.7461-6.5117 5.9141-13.203zm36.09-54.523c-2.2617-6.3242-5.9883-10.723-10.637-11.699l-0.21484-0.046876c-4.4766-0.83594-9.2734 1.5898-13.469 6.2305-4.6328 5.1289-8.418 12.824-10.336 21.93-0.11328 0.53125-0.20312 0.98828-0.27344 1.3711-1.7852 9.5664-1.1367 18.652 1.3555 25.613 2.2617 6.3242 5.9883 10.723 10.637 11.699l0.21484 0.046876c4.4766 0.83594 9.2734-1.5898 13.469-6.2305 4.6328-5.1289 8.418-12.824 10.336-21.93 0.11328-0.53125 0.20312-0.98828 0.27344-1.3711 1.7852-9.5664 1.1367-18.652-1.3555-25.613zm-160.47-71.68c9.3906 9.2227 11.266 17.934 8.4531 26.012-2.7188 7.8086-10.008 14.617-19.027 20.523 7.043 2.4766 15.336 4.4297 24.949 5.6289 0.18359-0.41016 0.44531-0.79688 0.78906-1.1328 3.8359-3.7852 7.0859-7.6445 9.5156-11.586 2.3477-3.8086 3.9453-7.6992 4.5781-11.684 0.99609-6.2617 0.46094-11.516-1.3984-16.465-1.8555-4.9453-5.082-9.7383-9.4531-15.004-2.3398 0.98047-4.8125 1.7344-7.3945 2.3047-3.5078 0.77344-7.1953 1.1992-11.008 1.4023zm-19.043 43.043c9.7852-5.7539 17.973-12.309 20.469-19.477 2.3242-6.6797-0.66797-14.457-12.832-23.496-1.6953-0.050781-3.4062-0.11719-5.125-0.19531-11.566-0.52734-19.48 3.0312-23.176 8.4961-1.7188 2.5391-2.5273 5.5234-2.3594 8.7031 0.17578 3.3438 1.4219 6.9453 3.8125 10.543 3.7031 5.5664 10.016 10.992 19.211 15.426zm-31.5 24.711c-11.82 6.875-22.398 14.719-28.973 23.219-4.4258 5.7227-6.9883 11.734-6.7617 17.918 1.2227 9.8555 2.9922 19.539 5.2773 29.027-0.11719-3.2734 0.44922-6.7227 1.7344-10.289 3.6445-10.133 13.215-21.25 29.32-31.77 5.3242-3.4805 11.527-7.3008 17.855-11.199 2.8477-1.7539 5.7188-3.5234 8.6484-5.3516-6.7148-1.3164-12.906-3.2109-18.137-5.9414-3.1914-1.668-6.1797-3.5469-8.9609-5.6094zm-37.395 22.238c0.77734-1.2031 1.6211-2.3906 2.5312-3.5664 6.7773-8.7656 17.168-16.742 28.801-23.734-11.773-11.059-18.926-25.648-21.637-40.254-0.86328-4.6406-1.2773-9.2891-1.25-13.828-5.7383 21.578-8.8008 44.242-8.8008 67.625 0 4.6133 0.12109 9.1992 0.35547 13.754zm155.79-157.05c0.20703 0.27344 0.375 0.56641 0.49609 0.87109 0.92969 0.39453 1.8672 0.82812 2.8047 1.3047-6.5234-10.48-12.059-21.473-15.871-35.152-3.5469-12.73-2.1016-25.496 3.0156-36.621 5.3164-11.559 14.598-21.336 26.355-27.441 8.6758-4.5039 19.523-7.3828 33.133-8.5469 12.945-1.1055 28.465-0.66406 47.086 1.3984 0.76953-4.6172 2.2734-9.207 4.6562-12.992 0.43359-0.6875 0.89062-1.3477 1.3789-1.9766-68.309 0.83594-130.33 27.766-176.57 71.281 4.3164 0.15625 8.957 1 13.797 2.4805 19.129 5.8594 41.832 21.949 59.719 45.391zm-11.277-2.1016c-15.914-18.586-34.656-31.289-50.602-36.172-6.9766-2.1367-13.332-2.7422-18.539-1.6406-0.54297 0.11719-1.0781 0.25-1.5977 0.40625-3.9609 4.082-7.793 8.293-11.488 12.625-1.2266 4.8516-1.3086 11.09 0.039062 18.832 1.2695 7.3086 4.043 13.668 7.8711 19.648 3.9297 6.1406 8.9922 11.93 14.703 17.934 8.2734-2.4453 16.918-8.5156 31.176-21.191h0.015625l0.1875-0.16406v-0.015625c7.8633-6.918 17.477-11.137 28.234-10.262zm-68.523 32.996c-4.5781-5.0117-8.6758-9.9883-12.059-15.273-4.3438-6.7852-7.4922-14.031-8.9492-22.418-0.60547-3.4883-0.94922-6.7422-1.0508-9.7617-13.414 17.441-24.684 36.621-33.418 57.137 0.57031-0.63281 1.1602-1.25 1.7695-1.8438 8-7.7773 19.266-11.855 33.641-9.7852l0.49609 0.070312c8.0039 1.1523 14.086 2.0273 19.57 1.875zm-0.19141 117.14c-5.0625 3.2461-10.598 6.6602-16.043 10.016-5.9609 3.6719-11.801 7.2734-17.68 11.113-14.688 9.5977-23.285 19.371-26.402 28.039-1.0469 2.9062-1.4492 5.6797-1.2305 8.2617 0.20703 2.4609 1 4.7539 2.3516 6.8281 2.4531 3.7539 6.7539 6.8633 12.773 9.0273 8.2383 2.9648 16.676 2.918 25.109 1.2734 8.7148-1.6992 17.461-5.1055 26.004-8.7188 16.719-7.0742 29.363-9.2227 41.785-5.0039 11.285 3.832 21.977 12.895 35.086 28.312 2.4844-3.5898 5.1094-7.7461 7.7578-12.762 1.9023-3.6094 3.5234-7.1836 4.8086-10.727-1.082-0.58984-2.1523-1.2422-3.207-1.9609-7.2148-4.918-13.613-12.883-19.137-24.746-5.1758-11.117-9.7422-20.734-16.074-27.332-6.0898-6.3477-14.113-10.156-26.547-10.27-9.6367-0.085938-19.82-0.33203-29.363-1.3477zm237.66-206.22 0.019531-0.003906c6.4492-1.1094 12.527-3.1289 18.93-6.4805 7.5547-3.9531 15.621-9.7852 25.293-18.164 2.9062-2.5156 6.0703-4.3789 9.418-5.6172 4.8984-1.8086 10.156-2.2695 15.539-1.4727-20.516-10.625-42.605-18.621-65.836-23.543-5.4258-0.51562-10.246-0.25781-14.426 0.66406-5.5039 1.2109-9.8164 3.5703-12.832 6.8047-2.9766 3.1875-4.7539 7.2812-5.2305 12.008-0.30078 2.9961-0.078125 6.2812 0.69141 9.7852 1.8438 8.3828 5.6055 15.93 11.055 20.762 4.5664 4.0508 10.41 6.1992 17.383 5.2578zm1.2852 7.3281c-0.097656 0.019531-0.19531 0.039062-0.29297 0.050781l-0.039062 0.003907c-1.0195 0.17187-2.0508 0.32031-3.0898 0.45312-25.578 3.2422-39.609 14.168-47.301 28.027-1.1523 2.0781-2.168 4.2305-3.0625 6.4336-0.5625 1.8867-1.1953 3.8164-1.9023 5.7812-0.097656 0.27344-0.22656 0.52734-0.375 0.76172-3.2617 11.066-4.0859 23.039-4.3242 34.066-0.039062 2.0547-1.7383 3.6875-3.793 3.6445-2.0547-0.039062-3.6875-1.7383-3.6445-3.793 0.29688-13.887 1.5039-29.234 7.0352-43.008 6.125-20.801 3.0391-35.727-4.4844-44.738-3.2617-3.9062-7.3594-6.7109-11.879-8.3945-4.5703-1.7031-9.6016-2.2852-14.684-1.7266-12.863 1.4141-25.898 10.184-32.48 26.539-2.6953 6.6953-1.6367 15.215 1.6797 24.582 3.4961 9.875 9.4648 20.562 16.273 31.074 2.5039 3.8633 4.9297 7.3984 7.3984 10.988 7.9219 11.531 16.23 23.621 21.652 37.539 0.64844 1.668 1.2578 3.5742 1.9102 5.6094 2.1055 6.5742 4.7148 14.73 9.1406 16.25 0.34375 0.11719 0.59766 0.19922 0.72266 0.23438 1.668 0.45703 4.0039 0.73828 6.168 0.023438 1.9922-0.65625 3.918-2.2969 5.1094-5.7539 0.16016-0.46875 0.27734-0.82813 0.34375-1.0742 0.45312-1.6562 0.90625-3.5625 1.3555-5.6992 0.44141-2.1133 0.85547-4.3438 1.2344-6.6758 1.2773-7.875 2.5195-13.152 4.9297-17.98 2.4258-4.8555 5.8906-8.9688 11.59-14.469 2.9453-2.8438 5.8008-5.4062 8.6758-7.7773 2.8477-2.3477 5.6992-4.4844 8.6719-6.5039 8.168-5.5508 14.793-7.6836 21.301-7.8438 6.4258-0.15625 12.336 1.5898 19.438 3.8398 8.1328 2.5781 15.762 0.27344 22.961-4.3359 7.75-4.9688 15.07-12.57 21.996-19.887l0.007813-0.007813-0.007813-0.007813 0.15234-0.16016c6.3203-6.6562 12.93-12.141 19.648-16.32-2.8281-5.375-5.7305-9.7578-8.6992-13.184-4.1406-4.7773-8.3359-7.6094-12.566-8.6289-4.0859-0.98828-8.3594-0.28516-12.785 1.9844-2.4727 1.2695-5.0078 3.0352-7.5938 5.2773-8.3008 7.1914-15.535 12.629-22.352 16.707-6.9297 4.1484-13.422 6.8828-20.137 8.6094-9.0781 2.3359-15.449 5.1602-20.488 8.582-5.0039 3.3945-8.8164 7.4727-12.742 12.289-1.2969 1.5938-3.6406 1.8359-5.2344 0.53906s-1.8359-3.6406-0.53906-5.2344c4.3242-5.3047 8.5781-9.8359 14.344-13.746 5.7266-3.8867 12.836-7.0625 22.824-9.6328 5.9922-1.5391 11.844-4.0195 18.152-7.793 6.4258-3.8438 13.324-9.0391 21.301-15.949 3.0156-2.6133 6.0469-4.7109 9.082-6.2695 6.0391-3.0977 12.023-4.0195 17.918-2.5977 5.75 1.3867 11.25 5 16.445 10.992 3.293 3.8008 6.4883 8.6016 9.5703 14.441 4.8477-2.3789 9.7266-4.0625 14.566-5.0039 0.3125-0.0625 0.625-0.11719 0.9375-0.17188-4.1719-9.9883-9.4141-18.418-15.211-25.109-6.4766-7.4766-13.609-12.75-20.656-15.547-6.7344-2.6758-13.379-3.0625-19.23-0.90234-2.5234 0.93359-4.9141 2.3398-7.1133 4.2461-10.094 8.7461-18.609 14.883-26.723 19.129-7.1328 3.7305-13.91 5.9805-21.102 7.2188zm117.79 10.258c8.1484-0.050781 16.039 2.1484 23.355 6.8477-2.6602-2.9102-5.3828-5.7617-8.1719-8.5469-10.105-10.105-21.035-19.391-32.672-27.746l0.15234 0.17578c6.7188 7.7539 12.727 17.594 17.336 29.27zm44.719 33.488c3.0547 8.7383 3.293 17.68 1.9258 26.234-0.9375 5.8711-2.6328 11.531-4.6758 16.789 15.145 4.1836 26.582 9.5742 34.004 16.711-7.8594-21.352-18.418-41.402-31.258-59.734zm-21.816 78.938c-4.0078 7.6211-6.6719 14.051-7.8047 19.734-1.3984 7.0078-0.35156 12.969 3.5352 18.93 5.3008-5.5898 9.6055-10.961 10.855-16.969 1.2148-5.8281-0.36719-12.695-6.5859-21.691zm31.195 67.934c6.1992 4.3633 11.379 8.4961 15.805 13.105 5.1367 5.3516 9.1914 11.273 12.527 18.812 2.7812 6.2852 4.5977 12.297 5.5469 17.98 2.6836-15.051 4.082-30.543 4.082-46.363 0-20.523-2.3555-40.496-6.8125-59.664-2.0977 11.332-8.6289 24.723-19.918 40.695-3.5469 5.0195-7.3633 10.223-11.23 15.434zm-58.91-5.3438c-6.9141-8.3906-11.836-17.008-13.531-26.574-1.7539-9.9023-0.027343-20.625 6.5508-32.887l0.44531-0.82812c-7.9688 1.9336-15.039 2.957-22.535 2.0312-9.2578-1.1445-18.828-5.25-31.012-14.277-11.945-8.8555-20.441-15.145-28.715-15.504-8.2461-0.35547-17.328 5.0859-31.098 19.617-5.9102 6.2383-9.543 11.023-10.473 17.246-0.97656 6.5547 0.77734 15.164 5.6875 29.027 5.8867 16.621 3.5547 21.266-3.5898 35.504-1.1328 2.2539-2.3945 4.7734-3.7891 7.6836-2.5469 5.3242-4.6172 10.645-6.3242 15.988-0.27344 1.4023-0.5 2.7852-0.67578 4.1445-1.9766 15.379 2.4805 27.672 10.34 36.688 7.9609 9.1328 19.418 14.996 31.281 17.375 1.4258 0.28516 2.8672 0.52344 4.3086 0.70703 4.2656 0.54688 6.9922 0.60156 9.2852-0.85938 2.6953-1.7148 5.5117-5.5117 9.8594-12.637l0.19531-0.32031c10.566-17.316 15.707-25.742 41.629-35.906 8.8125-3.457 16.305-6.6602 21.465-11.469 4.9219-4.5859 7.9219-10.918 8.2617-20.918 0.23438-6.9336 0.71875-10.656 2.4219-13.832zm-12.715-101.93c10.164-1.8789 20.801-3.8438 30.168-2.6445 0.57812-1.1016 1.1562-2.2109 1.7344-3.3242 3.9219-7.5586 4.1992-15.34 1.4844-20.91-1.293-2.6523-3.2656-4.7812-5.832-6.0938-2.6523-1.3555-6.0156-1.8906-10.031-1.2969-11.164 1.6445-26.543 11.645-44.812 35.66 6.0312 2.543 16.359 0.63281 27.289-1.3867zm50.75 138.62-1.3594-1.2617c-8.1797 11.52-14.387 21.418-15.98 27.949-0.67969 2.7812-0.23047 4.5977 1.8047 5.0977 8.25 2.0156 14.82 1.4453 19.438-0.78906 2.7305-1.3203 4.7539-3.2305 5.9961-5.5078 1.2422-2.2734 1.7305-4.9805 1.3945-7.8906-0.55078-4.793-3.3125-10.102-8.6055-15.086-0.84766-0.80078-1.75-1.6406-2.6836-2.5078z"/>
  <use x="70" y="560.140625" xlink:href="#w"/>
  <use x="70.035156" y="560.140625" xlink:href="#e"/>
  <use x="70.058594" y="560.140625" xlink:href="#b"/>
  <use x="70.089844" y="560.140625" xlink:href="#a"/>
  <use x="70.121094" y="560.140625" xlink:href="#d"/>
  <use x="70.144531" y="560.140625" xlink:href="#b"/>
  <use x="70.175781" y="560.140625" xlink:href="#l"/>
  <use x="70.222656" y="560.140625" xlink:href="#k"/>
  <use x="70.257812" y="560.140625" xlink:href="#j"/>
  <use x="70.304688" y="560.140625" xlink:href="#i"/>
  <use x="70.34375" y="560.140625" xlink:href="#v"/>
  <use x="70.359375" y="560.140625" xlink:href="#b"/>
  <use x="70.390625" y="560.140625" xlink:href="#f"/>
  <use x="70.425781" y="560.140625" xlink:href="#a"/>
  <use x="70.472656" y="560.140625" xlink:href="#h"/>
  <use x="70.507812" y="560.140625" xlink:href="#a"/>
  <use x="70.539062" y="560.140625" xlink:href="#f"/>
  <use x="70.570312" y="560.140625" xlink:href="#a"/>
  <use x="70.601562" y="560.140625" xlink:href="#g"/>
  <use x="70.628906" y="560.140625" xlink:href="#c"/>
  <use x="70.664062" y="560.140625" xlink:href="#u"/>
  <use x="70.691406" y="560.140625" xlink:href="#g"/>
  <use x="70.722656" y="560.140625" xlink:href="#t"/>
  <use x="70.75" y="560.140625" xlink:href="#a"/>
  <use x="70" y="560.1875" xlink:href="#s"/>
  <use x="70.019531" y="560.1875" xlink:href="#e"/>
  <use x="70.042969" y="560.1875" xlink:href="#c"/>
  <use x="70.074219" y="560.1875" xlink:href="#r"/>
  <use x="70.140625" y="560.1875" xlink:href="#d"/>
  <use x="70.164062" y="560.1875" xlink:href="#q"/>
  <use x="70.195312" y="560.1875" xlink:href="#b"/>
  <use x="70.242188" y="560.1875" xlink:href="#p"/>
  <use x="70.28125" y="560.1875" xlink:href="#c"/>
  <use x="70.316406" y="560.1875" xlink:href="#o"/>
  <use x="70.347656" y="560.1875" xlink:href="#f"/>
  <use x="70.398438" y="560.1875" xlink:href="#h"/>
  <use x="70.433594" y="560.1875" xlink:href="#e"/>
  <use x="70.453125" y="560.1875" xlink:href="#c"/>
  <use x="70.488281" y="560.1875" xlink:href="#n"/>
  <use x="70.503906" y="560.1875" xlink:href="#b"/>
  <use x="70.535156" y="560.1875" xlink:href="#m"/>
  <use x="70.5625" y="560.1875" xlink:href="#d"/>
 </g>
</svg>
