<?xml version="1.0" encoding="utf-8"?>
<svg viewBox="80.057 10.059 539.883 539.885" xmlns="http://www.w3.org/2000/svg">
  <path d="M 350 10.059 C 353.578 10.059 357.137 10.129 360.68 10.266 C 361.625 10.239 362.606 10.282 363.618 10.395 C 432.739 13.829 495.018 43.262 540.878 89.122 C 589.726 137.97 619.94 205.462 619.94 280.002 C 619.94 354.545 589.725 422.032 540.878 470.882 C 492.031 519.732 424.538 549.944 349.998 549.944 C 339.115 549.944 328.385 549.296 317.838 548.042 C 313.47 547.76 309.396 547.19 305.744 546.331 C 248.928 536.96 198.094 509.851 159.124 470.878 C 118.686 430.44 91.019 377.23 82.686 317.818 C 82.35 316.244 82.146 314.685 82.076 313.142 C 80.748 302.283 80.057 291.224 80.057 280.001 C 80.057 213.794 103.893 153.161 143.452 106.201 C 144.069 104.232 144.85 102.439 145.78 100.81 C 148.561 95.947 152.592 92.619 157.55 90.72 C 158.073 90.189 158.593 89.658 159.12 89.131 C 207.968 40.283 275.46 10.069 350 10.069 L 350 10.059 Z M 108.8 383.669 C 121.921 394.067 148.437 384.075 168.163 376.638 C 173.901 374.474 179.097 372.517 183.479 371.247 L 183.495 371.243 L 183.491 371.232 L 183.534 371.22 C 198.925 366.79 211.511 373.306 221.108 383.974 C 224.612 387.868 227.705 392.333 230.373 397.005 C 230.561 396.446 230.768 395.892 230.998 395.333 C 232.975 390.587 235.998 386.587 239.686 381.716 C 240.092 381.181 240.502 380.634 240.924 380.075 C 228.178 364.876 218.147 356.087 207.947 352.622 C 197.513 349.079 186.424 351.083 171.443 357.423 C 162.482 361.212 153.287 364.79 143.951 366.611 C 134.338 368.486 124.619 368.497 114.931 365.013 C 107.306 362.271 101.747 358.157 98.423 353.068 C 97.997 352.416 97.611 351.752 97.259 351.072 C 100.4 362.26 104.259 373.142 108.79 383.67 L 108.8 383.669 Z M 237.69 412.872 C 238.503 415.099 239.213 417.278 239.827 419.38 C 241.034 422.54 242.46 425.751 243.889 428.97 C 244.475 430.29 245.061 431.61 245.635 432.931 C 246.522 419.466 248.917 407.532 255.655 398.087 C 264.288 385.982 279.647 378.403 307.315 377.677 C 309.37 377.63 311.073 379.255 311.12 381.309 C 311.167 383.364 309.542 385.067 307.487 385.114 C 282.549 385.77 269.007 392.184 261.717 402.403 C 254.331 412.758 252.959 427.458 252.627 444.176 C 252.506 450.387 252.272 455.321 251.772 459.301 C 251.752 459.465 251.733 459.633 251.713 459.797 C 251.702 459.879 251.69 459.961 251.674 460.043 C 251.206 463.43 250.522 466.106 249.514 468.289 C 246.932 473.895 242.819 476.082 235.819 477.641 C 212.1 482.922 205.553 481.539 203.299 471.414 C 202.619 468.356 202.573 464.613 202.514 459.879 C 202.479 457.02 202.436 453.774 202.233 449.965 C 201.936 444.469 200.713 440.418 198.83 437.668 C 197.741 436.078 196.405 434.942 194.897 434.238 C 193.35 433.516 191.58 433.223 189.658 433.328 C 185.791 433.539 181.334 435.313 176.74 438.465 C 165.088 446.457 154.967 448.418 147.314 446.774 C 152.705 453.321 158.408 459.602 164.4 465.59 C 173.65 474.84 183.588 483.402 194.134 491.195 C 191.72 487.89 189.713 484.222 188.123 480.363 C 183.631 469.449 182.482 456.914 185.177 447.004 C 185.717 445.015 187.767 443.84 189.756 444.379 C 191.744 444.918 192.92 446.968 192.381 448.957 C 190.099 457.355 191.119 468.094 195.006 477.535 C 198.466 485.941 204.17 493.223 211.776 496.707 C 220.256 500.59 231.163 501.355 241.385 498.468 C 250.408 495.918 258.85 490.496 264.522 481.827 C 266.994 478.046 267.834 470.948 269.389 457.788 C 269.842 453.945 270.361 449.558 271.17 443.354 C 272.951 429.733 276.951 421.381 282.135 416.663 C 286.791 412.425 292.24 411.101 297.873 411.585 C 303.096 412.035 308.435 414.089 313.365 416.769 C 315.205 417.769 317.002 418.886 318.72 420.054 C 313.822 404.62 316.361 385.718 329.708 357.335 C 330.58 355.476 332.79 354.671 334.654 355.542 C 336.513 356.413 337.318 358.624 336.447 360.487 C 310.599 415.46 329.201 431.772 363.084 461.487 C 364.99 463.159 366.951 464.878 369.318 466.972 C 377.361 474.081 382.048 480.726 384.111 486.827 C 386.607 494.21 385.392 500.745 381.623 506.358 C 376.224 514.401 364.861 521.932 350.518 527.764 C 337.475 533.069 321.846 537.053 305.991 538.784 C 310.26 539.503 314.561 540.124 318.897 540.635 C 332.936 541.475 350.26 539.116 365.713 533.592 C 381.951 527.792 395.955 518.557 401.424 506.006 C 408.17 490.533 407.908 476.201 403.057 463.498 C 397.283 448.377 385.018 435.416 370.256 425.467 C 368.549 424.315 368.099 421.999 369.248 420.292 C 370.4 418.585 372.717 418.135 374.424 419.284 C 390.362 430.026 403.658 444.167 410.026 460.846 C 415.537 475.284 415.858 491.522 408.248 508.983 C 401.854 523.659 386.209 534.194 368.221 540.624 C 366.768 541.143 365.296 541.636 363.811 542.104 C 389.577 540.768 414.362 535.714 437.635 527.467 C 436.784 527.272 435.963 527.014 435.182 526.686 C 431.752 525.256 429.12 522.655 427.67 518.702 C 426.104 514.432 426.022 508.554 428.038 500.843 C 428.553 498.854 430.584 497.659 432.573 498.175 C 434.561 498.69 435.756 500.722 435.241 502.71 C 433.639 508.835 433.596 513.218 434.667 516.136 C 435.342 517.976 436.522 519.171 438.034 519.804 C 439.827 520.55 442.163 520.648 444.811 520.191 C 451.034 519.116 458.471 515.093 464.862 509.199 C 472.706 501.96 479.061 492.414 481.073 484.344 C 481.858 481.199 481.952 478.387 481.159 476.203 C 480.471 474.312 478.987 472.808 476.522 471.902 C 472.053 470.254 464.803 470.414 454.002 473.281 C 450.651 474.172 447.873 474.992 445.557 475.679 C 438.823 477.676 435.342 478.703 432.397 476.742 C 429.143 474.574 429.151 470.726 429.166 462.773 C 429.17 460.898 429.174 458.742 429.143 456.261 C 429.131 455.445 429.104 454.628 429.053 453.812 C 429.038 453.679 429.03 453.543 429.03 453.406 C 428.174 440.265 422.709 427.492 414.917 417.222 C 412.55 414.105 409.975 411.222 407.257 408.64 C 407.065 408.491 406.885 408.323 406.725 408.144 C 399.495 401.425 391.295 396.816 383.315 395.437 C 381.284 395.089 379.921 393.163 380.268 391.136 C 380.616 389.105 382.542 387.741 384.569 388.089 C 393.694 389.663 402.96 394.722 411.085 402.069 C 420.718 402.862 428.065 403.264 434.644 400.979 C 437.613 399.948 440.535 398.343 443.57 395.952 L 443.574 395.948 C 444.05 395.542 444.531 395.147 445.015 394.761 C 448.59 391.686 452.355 387.503 456.574 381.87 C 463.692 372.366 468.133 366.604 475.656 363.921 C 482.91 361.335 492.269 362.108 508.996 365.737 C 518.942 367.897 529.449 370.034 539.113 371.452 C 548.645 372.854 557.336 373.569 563.797 372.932 C 569.7 372.35 575.145 370.952 579.965 368.819 C 587.274 365.585 593.11 360.651 596.875 354.311 C 600.657 347.944 602.399 340.1 601.504 331.065 C 600.907 325.026 599.133 318.44 596.008 311.377 C 593.043 304.678 589.461 299.436 584.938 294.725 C 580.856 290.471 575.962 286.588 570.047 282.432 C 569.278 283.459 568.512 284.487 567.746 285.51 C 563.918 290.631 560.16 295.651 556.648 300.459 L 558.703 302.346 C 559.562 303.143 560.465 303.986 561.418 304.885 C 568.078 311.158 571.586 318.108 572.328 324.553 C 572.84 328.994 572.043 333.209 570.058 336.85 C 568.074 340.487 564.937 343.49 560.765 345.506 C 554.695 348.444 546.398 349.276 536.343 346.822 C 529.179 345.072 527.261 340.092 529.058 332.744 C 531.925 320.994 546.269 301.818 561.8 281.056 C 567.699 273.17 573.777 265.048 579.644 256.747 C 596.058 233.524 601.71 216.825 597.761 204.782 C 593.949 193.161 580.796 185.286 559.413 179.524 C 556.878 184.931 554.148 189.731 551.776 193.672 C 550.171 196.344 548.671 198.891 547.28 201.325 C 556.632 213.665 558.952 223.286 557.191 231.739 C 555.421 240.235 549.628 247.001 542.765 254.063 C 542.409 254.43 542.057 254.789 541.71 255.141 C 541.526 255.395 541.311 255.629 541.057 255.836 C 541.007 255.879 540.956 255.918 540.905 255.953 C 536.182 260.731 532.538 264.09 529.694 266.715 C 522.069 273.754 520.964 274.774 520.608 285.18 C 520.19 297.469 516.327 305.407 509.983 311.321 C 503.878 317.013 495.706 320.532 486.155 324.278 C 462.565 333.528 457.854 341.251 448.171 357.122 L 447.976 357.443 C 442.999 365.595 439.558 370.084 435.753 372.502 C 431.546 375.177 427.542 375.209 421.538 374.439 C 419.929 374.232 418.315 373.966 416.706 373.642 C 403.331 370.959 390.366 364.291 381.284 353.872 C 376.772 348.7 373.221 342.626 371.042 335.684 C 369.886 343.348 369.034 351.125 368.167 359.082 C 367.522 364.985 366.866 370.984 366.026 377.422 C 365.761 379.461 363.894 380.895 361.854 380.629 C 359.815 380.364 358.382 378.496 358.647 376.457 C 359.429 370.493 360.101 364.34 360.761 358.293 C 363.378 334.34 365.823 311.941 376.831 288.938 C 378.229 286.02 379.522 283.442 380.678 281.138 C 386.745 269.044 388.725 265.099 383.889 251.439 C 378.55 236.357 376.682 226.709 377.854 218.853 C 379.077 210.661 383.37 204.88 390.311 197.556 C 405.756 181.259 416.553 175.181 427.123 175.638 C 437.67 176.095 446.928 182.95 459.947 192.599 C 470.97 200.77 479.431 204.458 487.431 205.447 C 495.423 206.435 503.283 204.732 512.915 202.115 C 513.228 202.029 513.544 201.986 513.853 201.986 C 515.462 199.036 517.118 196.013 518.771 192.993 C 522.282 186.583 525.778 180.196 529.267 173.677 C 521.622 173.291 512.747 174.931 504.22 176.506 C 489.439 179.236 475.615 181.795 467.669 174.17 L 465.317 171.912 L 467.247 169.283 C 487.907 141.15 505.974 129.494 519.321 127.529 C 524.93 126.705 529.813 127.537 533.817 129.584 C 537.903 131.673 540.996 134.974 542.977 139.033 C 546.672 146.615 546.45 156.9 541.407 166.623 C 536.227 176.603 530.782 186.549 525.305 196.545 C 522.09 202.416 518.863 208.307 515.176 215.178 C 509.469 225.815 507.941 234.951 509.414 243.252 C 510.781 250.967 514.758 258.131 520.406 265.209 C 521.605 264.037 523.008 262.74 524.652 261.224 C 527.058 259.006 530.039 256.252 533.707 252.615 C 527.894 244.506 526.254 236.447 528.179 226.795 C 530.179 216.775 536.164 205.19 545.386 189.842 C 550.531 181.28 557.503 168.444 559.702 154.651 C 561.831 141.299 559.445 126.866 546.276 114.362 L 546.206 114.296 L 546.214 114.288 C 536.39 104.995 524.925 102.003 513.109 104.296 C 500.894 106.663 488.207 114.601 476.39 127.042 L 476.238 127.202 L 476.23 127.194 C 468.96 134.874 461.269 142.858 452.871 148.241 C 443.918 153.979 434.258 156.792 423.641 153.425 C 417.164 151.37 411.817 149.776 406.625 149.905 C 401.519 150.03 396.164 151.811 389.32 156.464 C 386.57 158.331 383.902 160.335 381.203 162.561 C 378.535 164.761 375.824 167.198 372.964 169.96 C 367.878 174.87 364.843 178.429 362.862 182.39 C 360.87 186.378 359.788 191.073 358.632 198.214 C 358.218 200.761 357.788 203.108 357.339 205.241 C 356.886 207.409 356.393 209.464 355.87 211.378 C 355.69 212.042 355.538 212.55 355.409 212.917 C 353.315 219.015 349.554 222.03 345.577 223.339 C 341.772 224.593 337.862 224.151 335.12 223.401 C 334.561 223.249 334.175 223.132 333.929 223.05 C 325.979 220.319 322.734 210.183 320.12 202.015 C 319.499 200.073 318.92 198.261 318.354 196.812 C 313.229 183.656 305.19 171.953 297.522 160.792 C 294.858 156.917 292.237 153.1 290.006 149.659 C 282.901 138.69 276.651 127.479 272.944 117.011 C 269.058 106.031 267.929 95.757 271.382 87.179 C 279.101 68.003 294.612 57.695 309.987 56.003 C 316.182 55.323 322.374 56.05 328.053 58.167 C 333.776 60.304 338.951 63.835 343.053 68.749 C 349.307 76.237 353.073 86.909 352.444 100.655 C 359.541 92.518 369.432 85.936 383.237 81.987 C 381.748 81.065 380.342 80.006 379.014 78.827 C 372.315 72.885 367.76 63.913 365.596 54.1 C 364.662 49.857 364.404 45.791 364.787 41.979 C 365.428 35.592 367.873 30.014 371.971 25.624 C 374.354 23.073 377.272 20.94 380.697 19.299 C 374.076 18.526 367.381 18.003 360.619 17.733 C 360.221 17.753 359.834 17.792 359.459 17.85 C 356.069 18.37 353.494 20.53 351.635 23.487 C 349.545 26.807 348.315 31.112 347.799 35.413 C 347.385 38.854 347.436 42.249 347.877 45.116 C 348.182 47.155 346.78 49.054 344.741 49.358 C 342.702 49.663 340.803 48.261 340.498 46.222 C 340.201 44.284 340.049 42.155 340.057 39.944 C 321.854 37.921 306.745 37.479 294.205 38.55 C 281.596 39.628 271.67 42.229 263.873 46.28 C 253.596 51.616 245.498 60.139 240.869 70.194 C 236.455 79.788 235.209 90.784 238.263 101.741 C 244.006 122.339 254.118 136.819 265.583 153.229 C 268.427 157.303 271.353 161.491 274.185 165.713 C 275.33 167.42 274.873 169.733 273.166 170.877 C 271.459 172.022 269.146 171.565 268.001 169.858 C 265.65 166.35 263.404 163.104 261.216 159.967 L 260.962 159.678 C 250.583 148.002 240.759 142.823 231.942 142.053 C 223.353 141.303 215.547 144.772 209.079 150.459 L 209.072 150.452 L 208.9 150.604 L 208.907 150.612 C 177.973 178.104 171.149 177.12 143.239 173.104 L 142.743 173.033 C 130.891 171.326 121.735 174.561 115.345 180.776 C 110.396 185.584 107.009 192.217 105.232 199.772 C 103.408 207.518 103.279 216.186 104.889 224.862 C 108.228 242.85 119.022 260.796 137.67 270.538 C 144.345 274.022 153.154 275.995 162.74 277.127 C 172.622 278.295 183.17 278.557 193.092 278.647 C 207.85 278.78 217.502 283.436 224.944 291.194 C 232.147 298.702 236.971 308.839 242.417 320.538 C 247.346 331.132 252.882 338.116 258.987 342.28 C 259.377 342.546 259.772 342.803 260.17 343.046 C 260.741 340.526 261.119 338.018 261.287 335.522 C 261.838 327.299 260.088 319.127 255.342 310.897 C 248.022 298.206 240.838 286.987 231.662 278.717 C 222.713 270.655 211.713 265.326 196.514 264.084 C 161.096 261.19 140.135 248.713 131.342 235.498 C 128.194 230.764 126.549 225.885 126.303 221.221 C 126.049 216.397 127.291 211.85 129.916 207.967 C 134.991 200.463 145.182 195.549 159.596 196.205 C 168.811 196.623 177.69 196.768 185.213 195.107 C 192.276 193.549 198.256 190.357 202.35 184.146 C 207.889 175.74 213.686 170.064 220.432 168.998 C 227.37 167.905 234.592 171.635 242.53 182.158 L 242.815 182.533 C 253.131 196.213 257.698 202.271 279.62 197.838 C 287.179 196.311 292.679 195.854 297.534 198.944 C 302.156 201.885 305.406 207.788 308.327 218.835 C 311.156 229.546 312.847 238.694 312.613 248.206 C 312.515 252.249 312.07 256.327 311.218 260.577 C 316.054 256.987 321.421 255.386 326.773 256.382 C 326.98 256.421 327.109 256.444 327.164 256.456 C 334.554 258.011 340.184 264.194 343.312 272.94 C 346.21 281.045 346.992 291.506 344.96 302.405 C 344.851 303.002 344.749 303.514 344.656 303.948 C 342.468 314.358 338.027 323.284 332.543 329.35 C 326.617 335.905 319.41 339.252 312.223 337.912 C 312.015 337.873 311.887 337.85 311.832 337.838 C 309.961 337.444 308.199 336.752 306.566 335.799 C 304.992 341.819 302.601 345.971 299.008 348.92 C 294.328 352.756 288.028 354.17 279.129 354.725 C 274.164 355.033 269.414 354.6 264.887 353.256 C 263.504 357.022 261.785 360.795 259.785 364.592 C 254.672 374.283 249.738 380.803 245.644 386.213 C 242.265 390.678 239.496 394.338 237.886 398.197 C 236.027 402.666 236.32 407.638 237.691 412.873 L 237.69 412.872 Z M 230.413 414.634 C 227.092 405.747 222.104 396.228 215.569 388.962 C 207.752 380.27 197.655 374.919 185.577 378.396 L 185.534 378.407 L 185.53 378.4 C 181.538 379.556 176.428 381.482 170.784 383.611 C 153.042 390.298 130.257 398.888 113.624 394.236 C 118.948 405.236 125.019 415.806 131.769 425.881 C 132.234 420.045 135.085 413.908 140.753 408.756 C 142.277 407.369 144.632 407.482 146.019 409.002 C 147.406 410.525 147.292 412.88 145.773 414.267 C 140.48 419.076 138.538 424.829 139.304 429.681 C 139.636 431.794 140.503 433.748 141.839 435.365 C 143.171 436.974 144.988 438.251 147.234 439.025 C 153.105 441.044 161.789 439.693 172.543 432.314 C 178.25 428.4 184.023 426.181 189.281 425.896 C 192.429 425.724 195.39 426.236 198.05 427.478 C 200.745 428.736 203.097 430.72 204.988 433.474 C 207.613 437.302 209.296 442.634 209.675 449.591 C 209.878 453.31 209.921 456.759 209.956 459.794 C 210.011 464.095 210.054 467.497 210.57 469.814 C 211.546 474.201 216.3 474.373 234.226 470.381 C 238.8 469.361 241.401 468.115 242.757 465.17 C 243.46 463.642 243.96 461.654 244.323 459.076 C 244.327 459.006 244.335 458.935 244.343 458.865 C 245.378 450.705 241.214 441.314 237.069 431.97 C 234.491 426.161 231.921 420.365 230.421 414.63 L 230.413 414.634 Z M 324.444 234.424 C 324.655 235.693 323.799 236.893 322.53 237.103 C 321.26 237.314 320.061 236.459 319.85 235.189 C 319.475 232.975 319.053 230.795 318.58 228.658 C 318.1 226.49 317.553 224.275 316.924 222.014 C 316.58 220.775 317.307 219.494 318.545 219.15 C 319.784 218.807 321.065 219.533 321.409 220.771 C 322.041 223.061 322.608 225.353 323.119 227.65 C 323.635 229.978 324.073 232.232 324.444 234.42 L 324.444 234.424 Z M 315.002 345.674 C 315.444 344.467 316.784 343.846 317.991 344.287 C 319.198 344.728 319.819 346.068 319.377 347.275 L 312.709 365.302 C 312.268 366.509 310.928 367.13 309.721 366.689 C 308.514 366.248 307.893 364.908 308.334 363.701 L 315.002 345.674 Z M 373.15 198.274 C 372.623 199.446 371.244 199.969 370.068 199.442 C 368.896 198.914 368.373 197.536 368.9 196.36 C 371.186 191.313 373.803 187.289 377.143 183.618 C 380.439 179.993 384.408 176.739 389.44 173.188 C 390.49 172.449 391.943 172.699 392.686 173.754 C 393.424 174.805 393.174 176.258 392.119 177 C 387.357 180.36 383.631 183.406 380.588 186.758 C 377.588 190.063 375.225 193.696 373.151 198.278 L 373.15 198.274 Z M 344.939 364.084 C 345.271 362.842 346.549 362.103 347.791 362.435 C 349.033 362.767 349.771 364.045 349.439 365.287 C 348.564 368.517 347.541 371.576 346.557 374.514 C 344.615 380.303 342.834 385.612 342.689 391.295 C 342.658 392.58 341.596 393.595 340.31 393.564 C 339.025 393.533 338.01 392.47 338.041 391.185 C 338.205 384.787 340.088 379.169 342.143 373.037 C 343.084 370.229 344.064 367.303 344.936 364.084 L 344.939 364.084 Z M 448.419 401.619 C 448.353 401.673 448.286 401.728 448.22 401.779 C 444.497 404.728 440.861 406.712 437.099 408.021 C 431.298 410.037 425.478 410.373 418.732 410.076 C 419.455 410.947 420.158 411.834 420.849 412.744 C 426.259 419.869 430.654 428.115 433.411 436.892 C 439.892 422.974 452.243 414.9 465.138 411.56 C 473.236 409.462 481.56 409.251 488.763 410.646 C 496.279 412.099 502.701 415.329 506.622 420.044 C 511.47 425.872 512.56 433.622 507.497 442.743 C 506.497 444.54 504.232 445.185 502.439 444.188 C 500.642 443.188 499.997 440.923 500.993 439.13 C 504.318 433.138 503.798 428.278 500.904 424.802 C 498.122 421.458 493.243 419.107 487.361 417.97 C 481.165 416.771 473.994 416.958 467.002 418.771 C 452.463 422.536 438.748 433.396 436.494 453.544 C 436.544 454.426 436.576 455.309 436.587 456.192 C 436.619 458.684 436.615 460.879 436.611 462.79 C 436.599 468.04 436.497 470.512 436.544 470.547 C 436.599 470.583 438.935 469.891 443.462 468.551 C 445.837 467.848 448.693 467.001 452.111 466.094 C 464.521 462.801 473.275 462.778 479.095 464.919 C 483.814 466.657 486.728 469.735 488.165 473.684 C 489.493 477.34 489.442 481.618 488.313 486.141 C 486.192 494.649 480.13 504.391 472.485 512.2 C 495.825 499.86 517.083 484.11 535.59 465.606 C 563.703 437.493 585.465 403.032 598.547 364.556 C 594.364 369.208 589.087 372.947 582.969 375.654 C 577.462 378.092 571.25 379.689 564.524 380.353 C 557.353 381.06 548.071 380.322 538.036 378.846 C 528.134 377.389 517.481 375.224 507.423 373.041 C 492.142 369.724 483.861 368.92 478.138 370.959 C 472.849 372.842 469.041 377.658 463.107 385.568 C 471.225 383.291 479.779 382.947 488.068 384.185 C 497.826 385.642 507.248 389.306 515.154 394.587 C 523.151 399.931 529.623 406.95 533.388 415.052 C 537.857 424.673 538.517 435.728 533.447 447.247 C 531.681 451.259 526.572 457.454 520.685 462.29 C 517.404 464.989 513.826 467.325 510.365 468.724 C 506.388 470.329 502.478 470.743 499.08 469.247 C 497.603 468.599 496.271 467.599 495.119 466.2 C 493.814 464.614 494.041 462.271 495.631 460.966 C 497.217 459.661 499.561 459.888 500.865 461.478 C 501.229 461.919 501.639 462.228 502.084 462.423 C 503.443 463.021 505.397 462.7 507.596 461.81 C 510.311 460.712 513.225 458.794 515.963 456.544 C 520.99 452.411 525.252 447.36 526.623 444.243 C 530.744 434.88 530.225 425.931 526.623 418.173 C 523.455 411.349 517.908 405.376 511.014 400.771 C 504.026 396.103 495.674 392.861 486.994 391.564 C 474.014 389.626 460.361 392.068 449.588 400.654 C 449.201 400.982 448.818 401.298 448.436 401.607 L 448.428 401.615 L 448.419 401.619 Z M 326.389 435.178 C 323.671 432.697 317.315 427.408 309.803 423.323 C 305.706 421.092 301.354 419.393 297.256 419.041 C 293.569 418.725 290.057 419.545 287.147 422.198 C 283.19 425.799 280.069 432.675 278.542 444.339 C 277.929 449.026 277.323 454.171 276.788 458.683 C 275.1 472.972 274.19 480.679 270.757 485.929 C 264.018 496.226 254.038 502.652 243.39 505.663 C 234.573 508.155 225.261 508.284 216.949 506.311 C 238.191 518.823 261.347 528.436 285.875 534.592 C 284.949 533.955 284.058 533.264 283.219 532.526 C 280.043 529.745 277.504 526.291 275.941 522.592 C 274.316 518.748 273.73 514.623 274.539 510.662 C 275.457 506.166 278.105 501.99 282.972 498.799 C 286.422 496.534 290.691 495.467 295.559 496.94 C 299.215 498.049 303.152 500.639 307.207 505.362 C 308.542 506.924 308.359 509.276 306.796 510.612 C 305.234 511.948 302.882 511.764 301.546 510.201 C 298.523 506.678 295.796 504.807 293.398 504.084 C 290.957 503.346 288.804 503.893 287.054 505.041 C 283.999 507.045 282.363 509.537 281.831 512.151 C 281.335 514.577 281.734 517.194 282.796 519.705 C 283.921 522.362 285.777 524.873 288.12 526.924 C 291.796 530.143 296.628 532.166 301.624 531.733 C 318.015 530.319 334.319 526.327 347.722 520.874 C 360.757 515.573 370.906 508.999 375.441 502.237 C 377.93 498.526 378.727 494.182 377.055 489.237 C 375.387 484.303 371.383 478.741 364.391 472.561 C 362.516 470.901 360.324 468.979 358.184 467.104 C 344.911 455.463 333.809 445.725 326.395 435.178 L 326.389 435.178 Z M 328.335 299.068 C 328.565 297.806 329.78 296.966 331.042 297.2 C 332.303 297.431 333.143 298.646 332.909 299.907 C 332.85 300.224 332.799 300.49 332.753 300.708 C 331.62 306.099 329.315 310.724 326.467 313.876 C 323.342 317.333 319.526 319.095 315.701 318.38 L 315.694 318.38 L 315.494 318.341 C 314.237 318.079 313.428 316.845 313.69 315.587 C 313.951 314.329 315.186 313.521 316.444 313.783 L 316.553 313.802 C 318.682 314.193 320.986 313.009 323.026 310.755 C 325.342 308.193 327.236 304.333 328.201 299.759 C 328.26 299.486 328.307 299.251 328.338 299.068 L 328.335 299.068 Z M 300.19 329.97 C 298.362 327.524 296.846 324.618 295.678 321.352 C 292.78 313.247 291.998 302.786 294.03 291.887 C 294.139 291.29 294.24 290.778 294.334 290.344 C 295.248 286.005 296.549 281.923 298.158 278.199 C 298.108 277.617 298.19 277.016 298.428 276.442 C 302.955 265.532 304.963 256.637 305.174 248.028 C 305.385 239.371 303.791 230.829 301.123 220.727 C 298.729 211.656 296.447 207.063 293.541 205.211 C 290.865 203.508 286.838 203.961 281.08 205.125 C 254.564 210.488 249.131 203.285 236.869 187.02 L 236.584 186.645 C 230.541 178.633 225.701 175.692 221.572 176.34 C 217.256 177.019 212.99 181.5 208.564 188.219 C 206.349 191.578 203.748 194.25 200.83 196.367 C 205.248 201.816 208.572 206.953 210.642 212.465 C 212.951 218.621 213.63 225.078 212.419 232.692 C 211.626 237.688 209.677 242.489 206.822 247.118 C 204.763 250.454 202.236 253.696 199.337 256.853 C 215.239 258.571 226.982 264.454 236.649 273.169 C 246.54 282.083 254.114 293.884 261.786 307.189 C 267.329 316.798 269.368 326.369 268.724 336.013 C 268.497 339.384 267.943 342.751 267.095 346.122 C 270.755 347.196 274.622 347.54 278.685 347.286 C 286.04 346.825 291.056 345.813 294.279 343.172 C 297.22 340.762 299.025 336.661 300.193 329.969 L 300.19 329.97 Z M 336.28 275.447 C 334.018 269.122 330.291 264.724 325.643 263.748 L 325.428 263.701 C 320.951 262.865 316.154 265.291 311.959 269.931 C 307.326 275.06 303.541 282.755 301.623 291.861 C 301.509 292.393 301.42 292.85 301.349 293.232 C 299.564 302.799 300.213 311.884 302.705 318.845 C 304.967 325.17 308.693 329.568 313.342 330.544 L 313.557 330.591 C 318.033 331.427 322.83 329.001 327.026 324.361 C 331.658 319.232 335.444 311.537 337.362 302.431 C 337.475 301.9 337.565 301.443 337.635 301.06 C 339.42 291.493 338.772 282.408 336.28 275.447 Z M 175.81 203.767 C 185.2 212.989 187.076 221.701 184.263 229.779 C 181.544 237.587 174.255 244.396 165.236 250.302 C 172.279 252.778 180.572 254.731 190.185 255.931 C 190.368 255.52 190.63 255.134 190.974 254.798 C 194.81 251.013 198.06 247.153 200.489 243.212 C 202.837 239.403 204.435 235.513 205.067 231.528 C 206.064 225.266 205.528 220.012 203.669 215.063 C 201.814 210.117 198.587 205.324 194.216 200.059 C 191.876 201.039 189.403 201.793 186.821 202.363 C 183.314 203.137 179.626 203.563 175.813 203.766 L 175.81 203.767 Z M 156.767 246.81 C 166.552 241.056 174.74 234.501 177.236 227.333 C 179.56 220.653 176.568 212.876 164.404 203.837 C 162.708 203.786 160.997 203.72 159.279 203.641 C 147.713 203.114 139.799 206.673 136.103 212.137 C 134.384 214.677 133.575 217.661 133.743 220.841 C 133.919 224.184 135.165 227.786 137.556 231.384 C 141.259 236.95 147.572 242.376 156.767 246.81 L 156.767 246.81 Z M 125.267 271.521 C 113.447 278.396 102.869 286.24 96.294 294.74 C 91.868 300.462 89.305 306.474 89.532 312.658 C 90.755 322.513 92.524 332.197 94.809 341.685 C 94.692 338.411 95.258 334.962 96.544 331.396 C 100.188 321.263 109.759 310.146 125.864 299.626 C 131.188 296.145 137.391 292.325 143.719 288.427 C 146.566 286.673 149.437 284.903 152.367 283.075 C 145.652 281.759 139.461 279.864 134.23 277.134 C 131.039 275.466 128.05 273.587 125.269 271.524 L 125.267 271.521 Z M 87.872 293.759 C 88.649 292.556 89.493 291.368 90.403 290.192 C 97.18 281.427 107.571 273.45 119.204 266.458 C 107.431 255.399 100.278 240.81 97.567 226.204 C 96.704 221.564 96.29 216.915 96.317 212.376 C 90.579 233.954 87.516 256.618 87.516 280.001 C 87.516 284.615 87.637 289.201 87.871 293.755 L 87.872 293.759 Z M 243.662 136.709 C 243.869 136.982 244.037 137.275 244.158 137.58 C 245.087 137.974 246.025 138.408 246.962 138.884 C 240.439 128.404 234.903 117.411 231.091 103.732 C 227.544 91.002 228.99 78.236 234.107 67.111 C 239.423 55.552 248.705 45.775 260.462 39.67 C 269.138 35.167 279.985 32.288 293.595 31.124 C 306.54 30.018 322.06 30.46 340.681 32.522 C 341.451 27.905 342.954 23.315 345.337 19.53 C 345.771 18.842 346.228 18.182 346.716 17.553 C 278.407 18.389 216.386 45.319 170.146 88.834 C 174.462 88.991 179.103 89.834 183.943 91.315 C 203.072 97.174 225.775 113.264 243.662 136.706 L 243.662 136.709 Z M 232.385 134.607 C 216.471 116.021 197.729 103.318 181.783 98.435 C 174.806 96.298 168.451 95.693 163.244 96.794 C 162.701 96.912 162.166 97.044 161.646 97.201 C 157.685 101.283 153.853 105.494 150.158 109.826 C 148.931 114.677 148.849 120.916 150.197 128.658 C 151.466 135.966 154.24 142.326 158.068 148.306 C 161.998 154.446 167.06 160.236 172.771 166.24 C 181.044 163.794 189.689 157.724 203.947 145.049 L 203.963 145.049 L 204.15 144.885 L 204.15 144.869 C 212.013 137.951 221.627 133.732 232.384 134.607 L 232.385 134.607 Z M 163.862 167.603 C 159.284 162.591 155.186 157.615 151.803 152.33 C 147.459 145.545 144.31 138.299 142.853 129.912 C 142.248 126.424 141.904 123.17 141.803 120.15 C 128.389 137.591 117.119 156.771 108.385 177.287 C 108.955 176.655 109.545 176.037 110.154 175.444 C 118.154 167.666 129.42 163.589 143.795 165.658 L 144.291 165.729 C 152.295 166.881 158.377 167.756 163.861 167.604 L 163.862 167.603 Z M 163.67 284.743 C 158.608 287.989 153.072 291.403 147.627 294.759 C 141.666 298.431 135.826 302.032 129.947 305.872 C 115.259 315.47 106.662 325.243 103.545 333.911 C 102.498 336.817 102.096 339.591 102.315 342.173 C 102.522 344.634 103.315 346.927 104.666 349.001 C 107.119 352.755 111.42 355.864 117.439 358.028 C 125.678 360.993 134.115 360.946 142.548 359.302 C 151.263 357.602 160.009 354.196 168.552 350.583 C 185.271 343.509 197.915 341.36 210.337 345.579 C 221.622 349.411 232.314 358.474 245.423 373.891 C 247.908 370.301 250.533 366.145 253.181 361.129 C 255.083 357.52 256.704 353.945 257.99 350.402 C 256.908 349.812 255.837 349.16 254.783 348.441 C 247.568 343.523 241.17 335.558 235.646 323.695 C 230.47 312.578 225.903 302.961 219.572 296.363 C 213.482 290.015 205.459 286.207 193.025 286.093 C 183.388 286.007 173.205 285.761 163.662 284.745 L 163.67 284.743 Z M 401.33 78.523 L 401.35 78.519 C 407.799 77.41 413.877 75.39 420.28 72.039 C 427.834 68.086 435.901 62.253 445.573 53.875 C 448.479 51.359 451.643 49.496 454.991 48.257 C 459.889 46.449 465.147 45.988 470.53 46.785 C 450.014 36.16 427.925 28.164 404.694 23.242 C 399.268 22.726 394.448 22.984 390.268 23.906 C 384.764 25.117 380.451 27.476 377.436 30.711 C 374.459 33.898 372.682 37.992 372.205 42.719 C 371.904 45.715 372.127 49 372.897 52.504 C 374.74 60.887 378.502 68.434 383.952 73.266 C 388.518 77.317 394.362 79.465 401.335 78.524 L 401.33 78.523 Z M 402.615 85.851 C 402.518 85.871 402.42 85.89 402.322 85.902 L 402.283 85.906 C 401.264 86.078 400.233 86.226 399.194 86.359 C 373.616 89.601 359.585 100.527 351.893 114.386 C 350.74 116.464 349.725 118.617 348.83 120.82 C 348.268 122.706 347.635 124.636 346.928 126.601 C 346.83 126.874 346.701 127.128 346.553 127.363 C 343.291 138.429 342.467 150.402 342.229 161.429 C 342.189 163.483 340.49 165.116 338.436 165.073 C 336.381 165.034 334.748 163.335 334.791 161.28 C 335.088 147.393 336.295 132.046 341.826 118.272 C 347.951 97.471 344.865 82.545 337.342 73.534 C 334.08 69.628 329.982 66.823 325.463 65.14 C 320.893 63.436 315.861 62.854 310.779 63.413 C 297.916 64.827 284.881 73.597 278.299 89.952 C 275.604 96.647 276.662 105.167 279.979 114.534 C 283.475 124.409 289.443 135.096 296.252 145.608 C 298.755 149.471 301.181 153.006 303.65 156.596 C 311.572 168.127 319.88 180.217 325.302 194.135 C 325.95 195.803 326.56 197.709 327.212 199.744 C 329.318 206.319 331.927 214.474 336.353 215.994 C 336.697 216.112 336.95 216.194 337.075 216.229 C 338.743 216.686 341.079 216.967 343.243 216.252 C 345.236 215.596 347.161 213.955 348.353 210.498 C 348.513 210.029 348.63 209.67 348.697 209.424 C 349.15 207.768 349.603 205.862 350.052 203.725 C 350.493 201.612 350.908 199.381 351.286 197.049 C 352.564 189.174 353.806 183.897 356.216 179.069 C 358.642 174.214 362.107 170.1 367.806 164.6 C 370.751 161.756 373.607 159.194 376.482 156.823 C 379.33 154.475 382.181 152.338 385.154 150.319 C 393.322 144.768 399.947 142.635 406.455 142.475 C 412.881 142.319 418.791 144.065 425.893 146.315 C 434.026 148.893 441.655 146.588 448.854 141.979 C 456.604 137.01 463.924 129.409 470.85 122.092 L 470.858 122.084 L 470.85 122.076 L 471.002 121.916 C 477.323 115.26 483.932 109.775 490.65 105.596 C 487.822 100.221 484.92 95.838 481.951 92.412 C 477.81 87.635 473.615 84.803 469.385 83.783 C 465.299 82.795 461.026 83.498 456.6 85.768 C 454.127 87.037 451.592 88.803 449.006 91.045 C 440.705 98.236 433.471 103.674 426.654 107.752 C 419.725 111.9 413.232 114.635 406.517 116.361 C 397.439 118.697 391.068 121.522 386.029 124.943 C 381.025 128.338 377.213 132.416 373.287 137.232 C 371.99 138.826 369.647 139.068 368.053 137.771 C 366.459 136.475 366.217 134.131 367.514 132.537 C 371.838 127.232 376.092 122.701 381.858 118.791 C 387.584 114.904 394.694 111.729 404.682 109.158 C 410.674 107.619 416.526 105.139 422.834 101.365 C 429.26 97.521 436.158 92.326 444.135 85.416 C 447.15 82.803 450.182 80.705 453.217 79.147 C 459.256 76.049 465.24 75.127 471.135 76.549 C 476.885 77.936 482.385 81.549 487.58 87.541 C 490.873 91.342 494.068 96.143 497.15 101.982 C 501.998 99.603 506.877 97.92 511.716 96.978 C 512.029 96.916 512.341 96.861 512.654 96.806 C 508.482 86.818 503.239 78.388 497.443 71.697 C 490.966 64.221 483.834 58.947 476.787 56.15 C 470.052 53.474 463.408 53.088 457.557 55.248 C 455.033 56.181 452.642 57.588 450.443 59.494 C 440.349 68.24 431.834 74.377 423.72 78.623 C 416.587 82.353 409.81 84.603 402.618 85.842 L 402.615 85.851 Z M 520.405 96.109 C 528.554 96.058 536.444 98.258 543.76 102.957 C 541.1 100.047 538.378 97.195 535.588 94.41 C 525.483 84.305 514.553 75.019 502.916 66.664 L 503.069 66.84 C 509.788 74.594 515.796 84.434 520.405 96.11 L 520.405 96.109 Z M 565.124 129.597 C 568.179 138.335 568.417 147.277 567.05 155.831 C 566.113 161.702 564.417 167.362 562.374 172.62 C 577.519 176.804 588.956 182.194 596.378 189.331 C 588.519 167.979 577.96 147.929 565.12 129.597 L 565.124 129.597 Z M 543.308 208.535 C 539.301 216.156 536.636 222.586 535.504 228.269 C 534.105 235.277 535.152 241.238 539.039 247.199 C 544.34 241.609 548.644 236.238 549.894 230.23 C 551.109 224.402 549.527 217.535 543.308 208.539 L 543.308 208.535 Z M 574.503 276.469 C 580.703 280.832 585.882 284.965 590.308 289.574 C 595.445 294.926 599.5 300.847 602.835 308.386 C 605.617 314.671 607.433 320.683 608.382 326.366 C 611.066 311.315 612.464 295.823 612.464 280.003 C 612.464 259.48 610.109 239.507 605.652 220.339 C 603.554 231.671 597.023 245.062 585.734 261.034 C 582.187 266.054 578.37 271.257 574.504 276.468 L 574.503 276.469 Z M 515.593 271.125 C 508.679 262.735 503.757 254.117 502.062 244.551 C 500.308 234.649 502.035 223.926 508.613 211.664 L 509.059 210.836 C 501.09 212.77 494.02 213.793 486.524 212.867 C 477.266 211.723 467.696 207.617 455.512 198.59 C 443.567 189.735 435.071 183.445 426.797 183.086 C 418.55 182.731 409.469 188.172 395.699 202.703 C 389.788 208.942 386.156 213.726 385.226 219.949 C 384.249 226.504 386.003 235.113 390.913 248.976 C 396.8 265.597 394.468 270.242 387.323 284.48 C 386.19 286.734 384.929 289.254 383.534 292.164 C 380.987 297.488 378.917 302.809 377.21 308.152 C 376.936 309.554 376.71 310.937 376.534 312.297 C 374.558 327.676 379.015 339.969 386.874 348.985 C 394.835 358.117 406.292 363.981 418.155 366.36 C 419.581 366.645 421.022 366.883 422.464 367.067 C 426.729 367.613 429.456 367.668 431.749 366.207 C 434.444 364.492 437.261 360.696 441.608 353.57 L 441.804 353.25 C 452.37 335.934 457.511 327.508 483.433 317.344 C 492.245 313.887 499.738 310.684 504.898 305.875 C 509.82 301.289 512.82 294.957 513.159 284.957 C 513.394 278.023 513.878 274.301 515.581 271.125 L 515.593 271.125 Z M 502.878 169.195 C 513.042 167.316 523.679 165.352 533.046 166.551 C 533.625 165.449 534.203 164.34 534.781 163.227 C 538.703 155.668 538.98 147.887 536.265 142.317 C 534.972 139.664 533 137.535 530.433 136.223 C 527.781 134.867 524.418 134.332 520.402 134.926 C 509.238 136.57 493.859 146.571 475.59 170.586 C 481.621 173.129 491.949 171.219 502.879 169.199 L 502.878 169.195 Z M 553.628 307.815 L 552.269 306.554 C 544.089 318.074 537.882 327.972 536.289 334.503 C 535.609 337.284 536.059 339.1 538.094 339.6 C 546.344 341.616 552.914 341.046 557.532 338.811 C 560.262 337.491 562.286 335.581 563.528 333.304 C 564.77 331.03 565.258 328.323 564.922 325.413 C 564.372 320.62 561.61 315.311 556.317 310.327 C 555.469 309.526 554.567 308.686 553.633 307.819 L 553.628 307.815 Z" style="paint-order: stroke; stroke: rgb(253, 253, 253); stroke-width: 0px; fill: rgb(255, 255, 255);"/>
</svg>